<?xml version="1.0" encoding="UTF-8"?>
<svg id="Livello_1" data-name="Livello 1" xmlns="http://www.w3.org/2000/svg" xmlns:xlink="http://www.w3.org/1999/xlink" viewBox="0 0 141.73 219.59">
  <defs>
    <style>
      .cls-1 {
        fill: #1d1d1b;
      }

      .cls-2 {
        fill: none;
      }

      .cls-3 {
        clip-path: url(#clippath);
      }
    </style>
    <clipPath id="clippath">
      <rect class="cls-2" width="141.73" height="219.59"/>
    </clipPath>
  </defs>
  <g class="cls-3">
    <path class="cls-1" d="M93.33,40.03c.54-2.11,1.26-3.65,1.69-4.48-2.97-1.99-6.23-3.62-9.66-4.84-.21.92-.48,2.37-.61,4.21-.23,3.21.03,6.44.77,9.6.57,2.43,1.44,4.82,2.57,7.1,1.35.29,2.72.64,4.11,1.06.53.16,1.06.33,1.59.5-.53-1.64-.89-3.31-1.07-4.99-.28-2.75-.08-5.5.61-8.17"/>
    <path class="cls-1" d="M72.84,34.64c-.39-2.17-.6-4-.7-5.29.01,6.16.03,14.32.05,22.29,1.72-.47,3.56-.77,5.47-.89.35-.02.7-.04,1.06-.05-1.12-1.83-2.13-3.83-2.99-5.96-1.26-3.12-2.23-6.51-2.88-10.1"/>
    <path class="cls-1" d="M83.27,34.81c.15-2.03.45-3.6.68-4.57-3.36-1.06-6.86-1.74-10.41-1.98.07,1.19.25,3.39.75,6.12.63,3.48,1.57,6.78,2.8,9.81.95,2.36,2.08,4.54,3.36,6.51,1.88.04,3.83.24,5.84.58-.95-2.08-1.69-4.23-2.21-6.42-.78-3.31-1.05-6.69-.81-10.04"/>
    <path class="cls-1" d="M96.24,36.39c-.4.79-1.01,2.17-1.49,4-.64,2.5-.84,5.08-.57,7.65.2,1.93.67,3.87,1.39,5.76,1.42.52,2.83,1.09,4.24,1.73-.29-2.92.03-5.6.98-7.98.73-1.83,1.72-3.25,2.7-4.31-2.07-2.58-4.52-4.87-7.25-6.85"/>
    <path class="cls-1" d="M66.66,26.86c14.44-1.31,29.28,4.72,37.9,15.38.8-.89.73-1.79-.12-2.78-9.13-10.03-23.73-15.6-37.94-14.32-14.57,1.32-27.05,9.45-35.55,23.02-.93,1.57-1.39,2.53-.34,3.97,8.18-15.02,20.75-23.9,36.05-25.29"/>
    <path class="cls-1" d="M46.46,36.17c.33.68.67,1.37,1.03,2.04.51.95,1.05,1.89,1.61,2.82,1.12,1.85,2.33,3.66,3.62,5.4,2.59,3.48,5.5,6.71,8.76,9.57.5.44,1,.86,1.51,1.27.79-1.18,1.82-2.21,3.08-3.05.84-.56,1.71-1,2.54-1.35-.53-.73-1.06-1.47-1.56-2.22-2.14-3.2-4.01-6.57-5.63-10.06-.81-1.74-1.57-3.51-2.26-5.31-.62-1.62-1.19-3.24-1.69-4.92-3.89,1.36-7.58,3.32-11.01,5.82"/>
    <path class="cls-1" d="M66.79,28.33c-2.7.25-5.35.78-7.92,1.57.49,1.62,1.06,3.25,1.67,4.85.68,1.76,1.4,3.52,2.18,5.24.78,1.73,1.62,3.42,2.51,5.09.89,1.67,1.84,3.3,2.86,4.9.53.83,1.08,1.65,1.65,2.45.18-.06.35-.12.51-.18l-.04-24.08c-1.14.01-2.28.06-3.42.17"/>
    <path class="cls-1" d="M66.9,55.43c-1.15.77-2.05,1.67-2.74,2.74.81.62,1.63,1.21,2.47,1.78,1.18.8,2.4,1.54,3.64,2.24v-7.21c-.26-.3-.5-.6-.74-.91-.85.34-1.76.78-2.63,1.36"/>
    <path class="cls-1" d="M68.87,62.56c-.97-.54-1.92-1.1-2.84-1.71-.82-.54-1.63-1.11-2.42-1.7-.4.82-.95,2.2-1.06,3.85-.11,1.54.19,2.98.88,4.29,1.32,2.5,3.9,4.17,6.84,4.49v-8.47c-.48-.24-.95-.49-1.41-.74"/>
    <path class="cls-1" d="M62.13,67.97h0c-2.67-1.05-5.24-2.34-7.68-3.84-2.58-1.58-5.02-3.39-7.3-5.37-2.28-1.98-4.42-4.12-6.4-6.41-.99-1.14-1.94-2.32-2.85-3.53-.45-.61-.9-1.22-1.32-1.85-.15-.21-.29-.43-.43-.65-1.71,2.23-3.27,4.63-4.69,7.2.46.62.93,1.24,1.42,1.85,1.31,1.6,2.71,3.13,4.2,4.55,2.99,2.86,6.34,5.34,9.98,7.3,3.63,1.96,7.56,3.38,11.62,4.18,2.02.4,4.09.64,6.16.77.6.04,1.2.06,1.8.07-1.92-.92-3.52-2.4-4.51-4.28"/>
    <path class="cls-1" d="M111,70.72c-.48,0-.86.39-.86.86s.39.86.86.86.86-.39.86-.86-.39-.86-.86-.86"/>
    <path class="cls-1" d="M45.28,37.06c-2.95,2.3-5.69,5.01-8.17,8.06.22.35.45.7.68,1.04.41.61.83,1.22,1.27,1.81.87,1.19,1.79,2.35,2.75,3.48,1.91,2.26,3.98,4.38,6.2,6.34,4.03,3.56,8.57,6.57,13.51,8.71-.37-1.14-.52-2.35-.43-3.61.14-2.07.88-3.77,1.34-4.66-.57-.45-1.13-.9-1.69-1.38-3.36-2.87-6.38-6.14-9.06-9.65-1.34-1.76-2.6-3.58-3.76-5.46-.58-.94-1.14-1.89-1.68-2.86-.33-.6-.65-1.21-.96-1.83"/>
    <path class="cls-1" d="M48.89,78.97c.51,0,.91-.41.92-.94.01-.58-.47-.96-.95-.96-.5,0-.92.43-.92.94,0,.54.42.96.96.95"/>
    <path class="cls-1" d="M41.51,82.2c.49,0,.93-.43.94-.93.02-.53-.41-.97-.95-.97-.5,0-.93.41-.95.92-.02.51.44.98.95.98"/>
    <path class="cls-1" d="M115.1,70.72c-.48,0-.86.39-.86.86s.39.86.86.86.86-.39.86-.86-.39-.86-.86-.86"/>
    <path class="cls-1" d="M35.77,90.29c7.36.78,13-.64,13-.64l-10.34-1.13s-1.27,1.12-2.66,1.77"/>
    <path class="cls-1" d="M41.52,78.73c.49,0,.93-.45.93-.94,0-.52-.45-.97-.97-.96-.53,0-.94.46-.92.99.02.51.45.91.96.9"/>
    <path class="cls-1" d="M123.3,70.72c-.48,0-.86.39-.86.86s.39.86.86.86.86-.39.86-.86-.39-.86-.86-.86"/>
    <path class="cls-1" d="M70.79,12.41c-32.26,0-58.41,26.15-58.41,58.41s26.15,58.41,58.41,58.41,58.41-26.15,58.41-58.41S103.05,12.41,70.79,12.41M27.43,51.32c8.7-16.33,22.53-26.15,38.94-27.64,1.28-.12,2.55-.17,3.83-.18v-2.38c0-1.36,1.14-2.03,1.92-2.04,0,0,0,1.67.01,4.44,13.69.45,27.04,6.79,35.15,17.01.82.96,1.52,1.91,2.28,3.01-.62-.03-1.37.02-2.7-.88,0,0-.12-.08-.26-.17-.02.01-.05.03-.08.04-1.21.85-3.2,2.61-4.37,5.56-.99,2.49-1.23,5.36-.72,8.54l.22,1.38-1.26-.6c-2.86-1.35-5.76-2.48-8.62-3.33-5.05-1.51-9.77-2.15-14.02-1.88-1.95.12-3.82.44-5.56.95,0,.83,0,1.66,0,2.48.91,1.1,1.89,2.15,2.93,3.14,2.72,2.6,5.86,4.78,9.3,6.4l-.11.26c-3.58-1.37-6.92-3.43-9.81-5.99-.8-.71-1.57-1.46-2.31-2.24,0,2.08,0,4.11.01,6.04,0,0,0,0,0,0,3.87,1.96,8.03,3.34,12.33,4.11l-.04.27c-4.23-.48-8.38-1.65-12.29-3.4.02,7.04.03,12.69.03,14.77.06.04.12.07.18.11,1.5.99,3.11,2.33,4.96,4.01.49.41,1.04.9,1.31,1.16-3.94.39-7.43.65-10.21.8-1.77-1.8-3.24-3.65-3.42-3.91,0,0-.89,1.46-1.82,2.08-1.18.78-3.36,1.65-4.53,2.07-.57,0-1.1,0-1.56,0-.37,0-.67,0-.89,0-.67-.01-1.69-.06-2.76-.13,1.74-1.23,7.32-6.45,9.26-7.79.6-.37,1.35-1.5,2.42-1.2.06.02.12.04.18.05,1.87.42,3.45.94,4.92,1.65v-4.62c-1.84.13-3.68.14-5.51.05-2.12-.12-4.23-.35-6.32-.75-4.18-.79-8.24-2.22-12-4.22-3.76-1.99-7.23-4.52-10.32-7.44-1.55-1.46-3-3.01-4.36-4.65-.68-.82-1.33-1.66-1.95-2.53-.37-.51-.72-1.03-1.07-1.56-.73,1.42-2.05,2.41-2.96,2.32.33-.77.94-2.01,1.62-3.2M86.53,74.87c.22-.1.75-.29,1-.76.15-.22.31-.42.45-.65.1-.16.2-.32.26-.49.17-.45-.08-.83-.56-.88-.13-.01-.8,0-1.12,0-.23,0-.7-.08-.92-.22.17-.4.34-.75.52-1.14.18-.41.38-.81.57-1.22.18-.39.33-.79.59-1.18.14.05,1.02.32,1.33.38.43.08.81.12,1.19-.18,0-.02-1.39-.78-2.03-1.14.16-.43.29-.67.56-.96.23-.23.52-.56,1.26-.52.47-.01,1.28.17,1.74.17.68.02,1.12-.41,1.2-.78.08-.38.06-.74-.1-1.1-.57-1.57-2.27-1.58-2.46-1.61-.05-.48-.08-1.04-.12-1.51.51-.07,6.7-1.14,9.45,5.39,1.58,3.75-.47,6.77-.47,6.77l-1.3-.76s.15-.35.22-.5c.39-1,.51-2.03.28-3.08-.19-.87-.69-1.52-1.44-1.98-.41-.25-.86-.36-1.34-.32-.66.06-1.02.63-.77,1.25.11.26.27.49.43.72.27.4.4.84.42,1.32.05,1.31-.69,2.85-1.63,3.55-.55-.25-1.07-.55-1.21-.53-.5.26-.52.89-.45,1.33.05.47.5.94,1.03,1.04.33.07,1.25.25,1.37.27,1.22.22,2.06.97,2.6,2.03.45.88,1.15,1.51,1.9,2.1.19.15.65.46,1.05.7-1.3.46-2.71.88-4.25,1.27-.12-.05-.23-.1-.3-.13-.56-.31-1.12-.59-1.69-.88-.13-.06-.28-.09-.42-.13-.33.4-1.03,1.27-1.08,1.33-.22.3-.35.53-.53.71-1.53.3-3.16.58-4.93.84-2.64.34-5.17.62-7.54.86,2.25-1.84,3.92-4.49,4.21-5.08-.42-.91.54-3,3.05-4.28M90.53,115.15c-6.35,4.09-12.1,6.58-16.02,2.79-1.02-.99-1.39-2.46-1.29-3.88,0-.02,0-.05,0-.07-6.85,5.03-12.04,6.63-15.81,4.87-1.29-.6-2.27-1.67-2.76-3.01-.12-.33-.21-.73-.26-1.07-.06-.46-.13-1.15-.01-1.82.11-.65.44-1.35.85-1.9.43-.58,1.04-1.11,1.68-1.42.13-.07.27-.12.42-.18,1.12-.4,2.32-.35,3.4.15.9.42,1.57,1.17,1.92,2.1.3.78.24,2.17-.38,2.97-.46.59-1.15.88-1.72.81-1.19-.13-1.49-.97-1.49-.97.72.34,1.58.02,1.91-.7.23-.49.25-1.03.07-1.54-.19-.5-.55-.91-1.04-1.14-.66-.31-1.4-.34-2.09-.09-.68.25-1.23.75-1.54,1.41-.41.88-.45,1.86-.12,2.78.33.91,1,1.64,1.88,2.05,3.59,1.67,9.3-.67,16.99-6.97.77-.63,1.71-.99,2.7-1.01.15,0,.3,0,.45.01,1.18.08,2.26.62,3.04,1.52.65.75.95,1.71.9,2.71-.05.83-.67,2.08-1.56,2.56-.66.35-1.41.33-1.9.04-1.04-.61-.96-1.49-.96-1.49.52.6,1.43.67,2.03.15.41-.35.65-.84.69-1.38.04-.54-.13-1.06-.49-1.46-.48-.55-1.14-.88-1.87-.94-.73-.05-1.43.18-1.99.66-.73.63-1.17,1.52-1.24,2.48-.07.97.22,1.93.88,2.63,3,3.21,8.32,1.01,13.5-1.65.54-.27,2.12-.98,2.38-.8-.13.13-.46.34-1.15.78M106.16,99.96c-.08,1.03-.51,1.98-1.22,2.72-.1.11-.21.21-.33.31-.9.77-2.05,1.14-3.23,1.05-.99-.08-1.88-.55-2.54-1.29-.56-.62-.99-1.95-.69-2.92.22-.71.77-1.22,1.33-1.36,1.17-.29,1.73.39,1.73.39-.79-.06-1.49.53-1.55,1.32-.04.54.13,1.06.48,1.47.35.41.84.66,1.37.7.72.06,1.43-.17,1.99-.65.56-.47.89-1.13.95-1.86.08-.96-.23-1.9-.86-2.64-.63-.74-1.51-1.18-2.48-1.26-3.79-.31-7.41,4.49-12.14,10.51-1.27,1.61-3.38,2.34-4.83,2.05-.98-.2-1.8-.77-2.37-1.59-.47-.69-.75-2.06-.33-2.98.31-.68.91-1.12,1.49-1.19,1.19-.15,1.67.59,1.67.59-.78-.16-1.54.35-1.7,1.13-.11.53,0,1.06.3,1.51.3.45.75.75,1.28.86.72.14,1.45,0,2.05-.4.61-.4,1.02-1.02,1.17-1.74.19-.95,0-1.92-.53-2.72s-1.35-1.36-2.3-1.55c-3.6-.73-7.47,2.3-13.28,8.85-.62.69-1.57,1.45-2.37,1.67-1.14.32-2.33.29-3.39-.24-.89-.45-1.53-1.22-1.87-2.16-.28-.78-.18-2.18.46-2.96.47-.58,1.18-.84,1.75-.76,1.19.17,1.46,1.01,1.46,1.01-.71-.35-1.58-.07-1.93.64-.24.48-.28,1.03-.11,1.54.17.51.53.92,1.01,1.17.65.33,1.39.38,2.09.15.69-.23,1.25-.72,1.58-1.37.43-.87.5-1.85.2-2.77-.31-.92-.95-1.66-1.82-2.1-3.54-1.77-9.32.41-17.18,6.49-.79.61-1.73.94-2.72.94-.15,0-.3,0-.45-.02-1.18-.12-2.24-.69-2.99-1.61-.63-.77-.9-1.74-.82-2.73.07-.83.72-2.06,1.63-2.51.67-.33,1.42-.29,1.91.02,1.02.64.92,1.52.92,1.52-.5-.61-1.41-.71-2.03-.2-.42.34-.68.82-.73,1.36-.05.54.1,1.06.44,1.48.46.56,1.11.91,1.84.99.72.07,1.44-.14,2-.6.75-.61,1.22-1.48,1.32-2.44.1-.96-.19-1.91-.8-2.66-2.54-3.1-8.81-3.44-18.66-1.01,8.09-3.62,16.96-3.78,19.99-.07.9,1.1,1.32,2.49,1.18,3.91,0,.03,0,.05,0,.07,6.99-4.84,12.22-6.29,15.94-4.43,1.28.64,2.22,1.74,2.68,3.09.11.34.19.67.23,1.02,4.91-5.4,9.16-7.67,12.89-6.91,1.4.29,2.6,1.09,3.39,2.28.33.5.82,1.27.91,1.85,4.41-6.13,8-8.86,11.74-8.63,1.59.1,2.72.77,3.64,1.86.92,1.08,1.37,2.46,1.26,3.89M106.17,92.36l-.99-3.01c.74-.45,1.48-.93,2.21-1.42l4,10.42c-3.46-1.14-5.23-6-5.23-6M110.25,90.92l-2.02-3.55c.64-.45,1.28-.91,1.9-1.38.03-.03.07-.05.11-.08l6.37,9.79c-3.62-.4-6.35-4.79-6.35-4.79M119.15,73.82l-.04.09c-4.01,7.96-14.93,15.16-22.21,17.97-11.42,4.41-20.79,5.32-30.43,5.61-.98.03-2.01.04-3.06.04-9.29,0-20.93-1.09-27.58-2.42-7.41-1.48-17.9-4.52-18.05-4.58-.07-.14,1.15-1.49,2.57-1.51.05,0,.1,0,.14,0,.32,0,.65.05.97.09,1.42.19,2.84.29,4.26.29.39,0,.78,0,1.16-.02,2.24-.09,4.35-.67,6.37-1.6.95-.44,4.06-2.52,4.26-4.38.09-.88.19-1.75.23-2.63.06-1.57.07-3.14.12-4.71.07-2.18.51-7.51.51-7.51h.78s.63,6.22.63,6.22l12.39.75.36,8.41s-1.66,1.52-4.17,2.33c.58.13,6,.51,7.89.54.24,0,.56,0,.92,0,2.26,0,6.37-.08,7.16-.09,4.62-.08,13.06-.66,22.68-1.89,2.66-.4,5.31-.87,7.93-1.49,2.18-.51,4.34-1.12,6.44-1.92.44-.16,1.34-.52,1.34-.52l-2.1-6.48.72-2.2,4.87,7.12s4.07-2.25,7.38-5.44l.07-.09h-4.98v-4.46h8.42c.64-.66,1.32-1.98,1.53-3.64.03-.72-.07-1.43-.35-2.07-.29-.71-.78-1.31-1.43-1.69-.64-.38-1.44-.56-2.28-.5-.82.05-1.54.37-2.02.91-.48.54-.76,1.31-.78,2.1-.03.78.26,1.58.82,2.12.28.27.63.47,1.01.58.4.11.8.12,1.2.01.39-.11.77-.35,1.06-.68.29-.33.47-.76.53-1.23h.22c.13,1.02-.47,2.16-1.51,2.65-.51.26-1.12.33-1.68.26-.57-.06-1.14-.29-1.61-.64-.96-.7-1.52-1.85-1.62-3.01-.05-.58,0-1.17.18-1.74.17-.57.47-1.11.87-1.58.4-.46.91-.84,1.46-1.09.55-.25,1.12-.4,1.69-.47.56-.07,1.12-.08,1.71-.01.58.07,1.16.24,1.7.5.25.12.48.26.71.41-.27-1.5-.87-2.96-1.46-3.85l.52-.37s2.02,2.67,2.89,5.01c.95,2.58,1.24,4.46.36,8h2.45c1.48,0,2.68,1.2,2.68,2.68v1.78h-6.81Z"/>
    <path class="cls-1" d="M45.29,82.36c.54,0,.97-.4.97-.94,0-.51-.41-.93-.92-.94-.53-.01-.97.42-.98.95,0,.51.42.92.93.93"/>
    <path class="cls-1" d="M119.2,70.72c-.48,0-.86.39-.86.86s.39.86.86.86.86-.39.86-.86-.39-.86-.86-.86"/>
    <path class="cls-1" d="M45.28,78.85c.53.01.97-.43.97-.95,0-.5-.43-.93-.92-.95-.51-.01-.94.4-.96.9-.02.54.38.99.91.99"/>
    <path class="cls-1" d="M48.9,82.63c.58-.04.93-.49.91-.95,0-.55-.42-.95-.96-.94-.51.01-.92.43-.92.94,0,.53.45.99.97.95"/>
    <path class="cls-1" d="M52.22,136.78l2.02-6.13,1.5.49-2.69,8.16-2.34-.77.12-7.01-4.02,5.72-2.36-.78,2.69-8.16,1.5.49-2.02,6.13,4.03-5.47,1.6.53v6.8ZM34.55,131.37l1.56-9.04,1.59.93-.36,1.81,2.89,1.69,1.4-1.2,1.49.87-7.1,5.81-1.47-.86ZM37.06,126.51l-.69,3.53,2.73-2.33-2.05-1.2ZM18.7,114.2c1.61-1.49,3.19-.57,4.54.88l.88.95,2.22-2.06,1.15,1.24-6.3,5.85-2-2.15c-1.2-1.29-2.39-2.94-.49-4.71M23.15,116.92l-.95-1.03c-.72-.77-1.48-1.2-2.31-.43-1.03.96-.39,1.83.24,2.51l.87.94,2.15-1.99ZM9.5,105.91l1.16-.74,2.46,3.85,1.8-1.15-2.32-3.64,1.16-.74,2.32,3.64,1.97-1.26-2.46-3.85,1.16-.74,3.37,5.28-7.25,4.63-3.37-5.28ZM10.78,96.67l3.12-1.26.64,1.57-7.97,3.22-1.06-2.62c-1.06-2.62-.72-3.93.95-4.6.91-.37,1.86-.23,2.68.59l2.73-3.16.71,1.75-2.48,2.85.68,1.67ZM9.56,97.16l-.52-1.3c-.49-1.22-1.13-1.59-1.91-1.27-.92.37-.89,1.25-.46,2.32l.49,1.22,2.4-.97ZM3.13,80.19c-1.72.15-2.64-1.61-2.78-3.2-.16-1.77.75-3.38,2.38-3.6l.15,1.63c-.99.22-1.25,1.12-1.18,1.93.07.78.44,1.63,1.21,1.56.6-.05.89-.59.96-1.29l.1-1.14c.12-1.42.54-3,2.32-3.16,1.76-.16,2.78,1.52,2.93,3.24.19,2.1-.82,3.6-2.65,3.91l-.14-1.63c1.24-.3,1.54-1.21,1.45-2.22-.07-.76-.42-1.69-1.34-1.61-.73.06-.94.76-1.03,1.69l-.11,1.1c-.15,1.42-.76,2.65-2.25,2.78M.83,60.83l1.37.12-.42,4.55,2.13.2.39-4.3,1.37.12-.39,4.3,2.33.21.42-4.55,1.37.12-.57,6.24-8.56-.78.57-6.23ZM6.2,49.44c-.97-.01-1.67.66-1.93,1.58-.4,1.38.27,2.62,2.25,3.21,1.97.58,3.29-.04,3.7-1.45.26-.89.17-2.19-1.16-2.58l-.14-.04-.6,2.06-1.33-.39,1.04-3.56,4.38,1.28-.38,1.29-.98-.24c.53.66.73,1.65.39,2.81-.68,2.32-2.79,3.27-5.42,2.5-2.56-.75-3.79-2.76-3.05-5.28.57-1.93,2.08-2.92,3.68-2.74l-.45,1.55ZM11.93,41.65c1.34.71,2.29.86,3.03-.52.73-1.38.06-2.06-1.28-2.77l-4.39-2.32.79-1.5,4.38,2.32c2.51,1.33,2.87,2.69,1.7,4.91-1.17,2.22-2.52,2.71-5.02,1.38l-4.38-2.32.79-1.5,4.39,2.32ZM20.67,34.22l-6.88-5.15,1.01-1.36,6.88,5.15-1.02,1.36ZM23.95,25.09l2.36,2.4-1.21,1.19-6.03-6.14,2.01-1.98c2.02-1.99,3.36-2.17,4.62-.88.69.7.93,1.64.48,2.71l3.97,1.32-1.35,1.32-3.58-1.21-1.29,1.26ZM23.03,24.15l1-.98c.94-.92,1.04-1.65.45-2.25-.7-.71-1.5-.34-2.32.47l-.94.92,1.81,1.84ZM41.1,13.83l-1.25-6.65,1.59-.84,1.38,8.98-1.53.81-6.64-6.21,1.62-.86,4.83,4.77ZM49.73,12.32l-2.83-8.12,1.6-.56,2.83,8.12-1.6.56ZM57.55,6.6l.6,3.31-1.67.3-1.55-8.45,2.78-.51c2.79-.51,3.99.09,4.32,1.86.18.97-.15,1.87-1.12,2.51l2.55,3.32-1.85.34-2.29-3-1.77.32ZM57.31,5.31l1.38-.25c1.29-.24,1.78-.79,1.63-1.61-.18-.98-1.05-1.12-2.18-.91l-1.3.24.46,2.54ZM67.17,1.42V.05S74.15,0,74.15,0v1.38s-2.65.02-2.65.02l.05,7.22h-1.69s-.05-7.21-.05-7.21l-2.64.02ZM80.99,5.73c-.27,1.49-.13,2.45,1.4,2.73,1.54.28,1.99-.56,2.26-2.06l.89-4.89,1.67.3-.89,4.88c-.51,2.79-1.7,3.55-4.17,3.09-2.47-.45-3.34-1.59-2.83-4.37l.89-4.88,1.67.31-.9,4.89ZM92.59,4.75l.49-1.28,6.53,2.51-.49,1.28-2.48-.95-2.59,6.74-1.58-.61,2.59-6.74-2.47-.95ZM110.49,12.02l-.71,1.17-3.9-2.37-1.11,1.82,3.69,2.24-.71,1.18-3.69-2.24-1.21,2,3.9,2.37-.71,1.18-5.35-3.25,4.46-7.34,5.35,3.25ZM125.4,25.52l-1.01.93-3.08-3.37-1.57,1.44,2.91,3.18-1.01.93-2.91-3.18-1.72,1.57,3.08,3.37-1.01.93-4.22-4.62,6.34-5.8,4.22,4.62ZM126.95,44.22c-1.1-2.3-.15-4.38,2.32-5.56,2.45-1.17,4.65-.49,5.73,1.77.87,1.82.43,3.55-1.07,4.58l-.69-1.45c.94-.81.95-1.7.54-2.56-.56-1.18-1.95-1.61-3.75-.76-1.85.88-2.4,2.25-1.87,3.38.44.92,1.22,1.48,2.38,1.22l.7,1.45c-1.66.54-3.4-.21-4.29-2.07M139.59,53.76l-7.51,5.27-.46-1.78,1.53-1.02-.84-3.24-1.84-.15-.44-1.67,9.12.94.43,1.65ZM134.38,55.4l2.98-2-3.58-.3.6,2.3ZM139.38,64.76l-6.55.37-.09-1.6,8.58-.48.12,2.2-6.36,3.8,6.55-.37.09,1.6-8.59.48-.12-2.2,6.35-3.8ZM137.25,76.33c2.64.39,4.16,2.28,3.78,4.81-.37,2.53-2.37,3.9-5.01,3.52-2.64-.39-4.17-2.28-3.79-4.81.37-2.53,2.38-3.9,5.02-3.51M136.28,82.92c1.99.29,3.22-.65,3.42-1.98.19-1.33-.71-2.59-2.7-2.88-1.99-.29-3.24.65-3.43,1.97-.2,1.32.72,2.59,2.71,2.88M136.43,90.71c1.63.59,1.72,2.57,1.18,4.07-.6,1.67-2.1,2.75-3.68,2.27l.55-1.54c.99.22,1.6-.5,1.88-1.25.26-.74.28-1.66-.44-1.92-.57-.2-1.05.16-1.41.77l-.57.99c-.71,1.23-1.75,2.49-3.43,1.89-1.66-.6-1.88-2.54-1.3-4.17.71-1.99,2.26-2.92,4.05-2.44l-.55,1.54c-1.25-.25-1.9.45-2.25,1.41-.26.72-.32,1.71.54,2.02.69.25,1.18-.3,1.64-1.1l.56-.96c.73-1.22,1.81-2.08,3.21-1.58M124.04,102.65c1.31-2.19,3.57-2.55,5.92-1.14,2.33,1.39,2.98,3.61,1.7,5.75-1.04,1.73-2.73,2.32-4.41,1.65l.83-1.39c1.19.34,1.94-.15,2.43-.96.67-1.12.26-2.52-1.44-3.54-1.76-1.05-3.21-.76-3.85.31-.52.88-.56,1.83.3,2.66l-.83,1.38c-1.37-1.08-1.7-2.95-.64-4.72M121.56,120.21l-1.03-.91,3.03-3.41-1.6-1.42-2.87,3.23-1.03-.92,2.87-3.23-1.75-1.55-3.03,3.41-1.03-.91,4.16-4.68,6.42,5.71-4.16,4.68ZM114.34,123.97l-3.99-5.2,1.27-.97,5.23,6.82-1.75,1.34-6.72-3.1,3.99,5.2-1.27.97-5.23-6.82,1.75-1.34,6.72,3.11ZM100.57,126.98l-4.25,2.13-.65-1.29,6.14-3.07.59,1.19-1.55,7.3,3.83-1.92.64,1.28-5.7,2.85-.6-1.19,1.53-7.28ZM89.48,138.97l-5.43-7.39,1.77-.5,1.06,1.51,3.21-.91.11-1.84,1.66-.47-.73,9.14-1.64.47ZM87.72,133.79l2.06,2.94.22-3.58-2.28.65ZM70.79,135.65c-1.09,0-1.97.88-1.97,1.97s.88,1.97,1.97,1.97,1.97-.88,1.97-1.97-.88-1.97-1.97-1.97"/>
    <path class="cls-1" d="M15.3,187.77c-4.92,0-8.07-2.46-9.15-7.33H0c.74,7.82,6.54,12.44,15,12.44,7.03,0,14.16-3.69,14.16-10.87s-5.95-9.44-12.2-10.67l-4.38-.84c-3.05-.59-5.31-1.97-5.31-4.72,0-3.49,4.08-4.72,6.84-4.72,3.49,0,7.23,1.23,8.26,5.51h6.05c-1.43-7.43-6.94-10.62-13.97-10.62-6.54,0-13.47,3.35-13.47,10.03,0,6.05,4.67,8.95,10.28,10.08l4.33.84c3.39.64,7.33,1.87,7.33,5.51,0,3.44-3.39,5.36-7.62,5.36"/>
    <rect class="cls-1" x="34.38" y="156.59" width="6.24" height="35.65"/>
    <path class="cls-1" d="M60.79,187.77c-4.92,0-8.06-2.46-9.15-7.33h-6.15c.74,7.82,6.54,12.44,15,12.44,7.03,0,14.16-3.69,14.16-10.87s-5.95-9.44-12.2-10.67l-4.38-.84c-3.05-.59-5.31-1.97-5.31-4.72,0-3.49,4.08-4.72,6.83-4.72,3.49,0,7.23,1.23,8.26,5.51h6.05c-1.42-7.43-6.93-10.62-13.97-10.62-6.54,0-13.47,3.35-13.47,10.03,0,6.05,4.67,8.95,10.28,10.08l4.33.84c3.39.64,7.33,1.87,7.33,5.51,0,3.44-3.39,5.36-7.62,5.36"/>
    <path class="cls-1" d="M93.18,187.77c-4.92,0-8.07-2.46-9.15-7.33h-6.15c.74,7.82,6.54,12.44,15,12.44,7.03,0,14.16-3.69,14.16-10.87s-5.95-9.44-12.19-10.67l-4.38-.84c-3.05-.59-5.31-1.97-5.31-4.72,0-3.49,4.08-4.72,6.84-4.72,3.49,0,7.23,1.23,8.26,5.51h6.05c-1.42-7.43-6.93-10.62-13.96-10.62-6.54,0-13.48,3.35-13.48,10.03,0,6.05,4.67,8.95,10.28,10.08l4.33.84c3.39.64,7.33,1.87,7.33,5.51,0,3.44-3.39,5.36-7.62,5.36"/>
    <path class="cls-1" d="M117.38,184.32h14.46l2.8,7.92h6.84l-13.38-35.65h-6.59l-13.28,35.65h6.39l2.75-7.92ZM124.56,163.82l5.41,15.29h-10.77l5.36-15.29Z"/>
    <rect class="cls-1" y="203.52" width="141.48" height="5.21"/>
    <rect class="cls-1" y="214.38" width="141.48" height="5.21"/>
  </g>
</svg>
